<svg version="1.1" id="Layer_1" xmlns="http://www.w3.org/2000/svg" xmlns:xlink="http://www.w3.org/1999/xlink" x="0px" y="0px"
	 width="1024" height="1024" viewBox="0 0 1024 1024" enable-background="new 0 0 1024 1024" xml:space="preserve">
<rect x="45" y="46" width="936" height="935" rx="198" fill="#151C2F"/>
<path fill="#151C2F" opacity="1.000000" stroke="none" 
	d="
M981.040405,654.000000 
	C981.038025,695.331299 980.730164,736.165405 981.112427,776.993103 
	C981.572083,826.083191 966.674133,869.702576 935.710571,907.716125 
	C909.270569,940.176086 875.561035,961.760254 835.417297,973.410278 
	C815.924561,979.067200 796.083618,981.205811 775.743469,981.180969 
	C597.752625,980.963989 419.761322,981.155212 241.770432,980.970398 
	C204.737549,980.931946 170.605927,970.091125 139.224915,950.514893 
	C106.125435,929.866638 81.285339,901.775085 64.400436,866.709351 
	C54.125332,845.370483 47.580715,822.893921 45.936939,799.164917 
	C45.362411,790.871216 44.999088,782.544189 44.996777,774.232300 
	C44.947628,597.407837 44.878830,420.583313 45.026966,243.758957 
	C45.063908,199.665573 59.089493,160.136719 85.521545,124.865540 
	C106.594627,96.745430 133.570251,76.098671 165.457413,61.954166 
	C188.963913,51.527168 213.777405,45.968315 239.616043,45.963181 
	C420.940308,45.927158 602.264526,45.937748 783.588806,45.960232 
	C819.416138,45.964672 852.561401,55.489319 883.348816,73.806526 
	C922.572632,97.143036 950.292175,130.273895 967.401245,172.297928 
	C974.394653,189.475449 979.302612,207.532089 979.843506,226.099045 
	C980.861694,261.054565 980.964233,296.043823 981.004700,331.019531 
	C981.129150,438.512878 981.044189,546.006470 981.040405,654.000000 
M614.338318,310.122589 
	C605.369324,293.723694 593.151672,280.188965 577.477051,270.093384 
	C524.467590,235.951416 456.724121,247.856873 419.364685,298.596497 
	C396.198242,330.059906 392.423828,365.199829 403.976807,402.195770 
	C405.492798,407.050446 408.557007,410.709381 413.751221,411.992676 
	C419.218536,413.343414 424.064117,411.947601 427.949768,407.951996 
	C431.808807,403.983734 432.442596,399.113525 430.630768,394.028992 
	C425.134674,378.605164 423.387512,362.806000 427.003510,346.815948 
	C437.388519,300.892822 480.558685,271.759521 527.193787,278.873230 
	C565.878540,284.774139 596.689453,316.780304 600.734436,355.266632 
	C604.753357,393.504364 581.003723,431.548492 544.162231,444.831787 
	C535.154114,448.079590 525.486084,449.568451 516.055786,451.554138 
	C506.248108,453.619293 500.926666,459.697937 500.904327,469.617889 
	C500.874664,482.782166 500.795532,495.947937 500.970795,509.109985 
	C501.013092,512.287354 499.933105,513.851868 497.022186,514.998169 
	C484.163422,520.061768 471.383453,525.325500 458.576599,530.520813 
	C391.764679,557.624268 324.950500,584.722107 258.143158,611.836792 
	C231.760315,622.544556 205.358047,633.205688 179.031982,644.051636 
	C163.664032,650.382874 154.595261,665.106873 156.569229,679.871460 
	C159.011230,698.136963 172.691544,710.381897 191.350876,710.539307 
	C212.345123,710.716370 233.342224,710.547241 254.338074,710.547546 
	C395.145538,710.549438 535.953003,710.545837 676.760498,710.567200 
	C729.084473,710.575195 781.408386,710.654968 833.732361,710.681885 
	C849.915100,710.690186 863.660156,701.269470 867.998047,687.278015 
	C873.846191,668.415344 865.014526,651.293701 845.351624,643.302368 
	C792.130127,621.672241 738.929626,599.990356 685.691467,578.401367 
	C634.613586,557.688354 583.515015,537.025940 532.364868,516.492432 
	C528.878418,515.092834 527.546692,513.466125 527.685364,509.667389 
	C528.001282,501.013123 528.099976,492.328430 527.727173,483.680237 
	C527.517822,478.823822 529.015930,476.825348 533.917603,475.875519 
	C552.331421,472.307343 569.236328,465.010010 584.142273,453.524933 
	C629.930969,418.244598 640.017578,357.222229 614.338318,310.122589 
M373.962891,393.549377 
	C378.057709,390.218658 378.619568,385.903961 376.732300,381.386780 
	C374.819031,376.807343 370.788483,375.069000 366.083069,375.800995 
	C353.422058,377.770569 340.768463,379.827789 328.182922,382.223419 
	C322.706970,383.265747 319.397766,388.897552 320.505798,393.935425 
	C321.707733,399.400238 326.095642,402.262878 332.177582,401.468536 
	C335.478729,401.037415 338.782471,400.584656 342.053528,399.972900 
	C352.491302,398.021027 362.914276,395.990143 373.962891,393.549377 
M675.289612,378.414581 
	C669.706848,377.530212 664.151306,376.297302 658.533752,375.858795 
	C652.831665,375.413696 648.801819,379.114014 648.161499,384.465851 
	C647.544250,389.625519 650.837463,394.299622 656.312683,395.320801 
	C668.902527,397.668945 681.514282,399.917847 694.159180,401.944763 
	C700.328674,402.933685 704.952759,399.451630 705.851440,393.785736 
	C706.747131,388.139313 703.377930,383.518890 697.255737,382.347839 
	C690.231995,381.004364 683.170105,379.859650 675.289612,378.414581 
M639.458313,314.164368 
	C642.804260,314.161591 646.641357,315.233398 649.410278,313.968018 
	C660.725952,308.796753 671.834351,303.127350 682.731323,297.119354 
	C685.101135,295.812775 687.328247,292.540649 687.815796,289.846954 
	C689.275085,281.784241 681.171814,276.256500 673.305969,279.992859 
	C662.065674,285.332062 650.992859,291.044189 640.017212,296.912659 
	C633.072021,300.626160 632.738525,307.785828 639.458313,314.164368 
M375.936035,313.450195 
	C383.002136,316.661133 388.247803,315.511536 391.013367,310.145966 
	C393.586060,305.154633 391.752716,299.284302 386.509979,296.578125 
	C375.745514,291.021881 364.946869,285.527985 354.079437,280.176666 
	C347.814972,277.091919 342.260406,278.776978 339.615356,284.204315 
	C336.979919,289.611938 339.130463,294.696075 345.527618,297.976868 
	C355.423950,303.052124 365.344696,308.079681 375.936035,313.450195 
M425.045807,246.516037 
	C425.527344,247.193069 426.017059,247.864471 426.489166,248.548004 
	C430.574615,254.462875 436.174194,255.874390 441.362976,252.293701 
	C446.578522,248.694534 447.108948,243.829483 442.957947,237.560043 
	C436.630768,228.003845 430.303284,218.447830 423.965027,208.898987 
	C420.253174,203.306931 414.356598,201.782089 409.475037,205.128281 
	C404.812866,208.324051 403.961334,214.423981 407.416870,219.670670 
	C413.172272,228.409317 418.910736,237.159119 425.045807,246.516037 
M591.346680,225.800919 
	C588.459778,230.081528 585.498657,234.314392 582.705017,238.654953 
	C579.319641,243.914810 580.363342,249.385941 585.218262,252.641876 
	C590.068848,255.894928 596.123901,254.539825 599.537354,249.385254 
	C606.066345,239.525833 612.570618,229.650024 619.077454,219.775970 
	C622.568359,214.478561 621.591064,208.632355 616.683472,205.352646 
	C611.954651,202.192413 606.289551,203.449188 602.817078,208.559509 
	C599.072998,214.069473 595.441284,219.655746 591.346680,225.800919 
M522.733154,222.093491 
	C522.684570,210.305008 522.725037,198.515228 522.552002,186.728577 
	C522.456970,180.252686 518.190857,176.061142 512.359924,176.276611 
	C507.123749,176.470093 503.506287,180.709946 503.461029,186.879013 
	C503.376984,198.336380 503.348999,209.794220 503.324158,221.251938 
	C503.308990,228.256958 506.536987,232.290787 512.406372,232.686020 
	C517.972046,233.060822 521.585510,229.677597 522.733154,222.093491 
z"/>
<g transform="translate(0 40)">
<path fill="#FAC65A" opacity="1.000000" stroke="none" 
	d="
M614.524658,310.442444 
	C640.017578,357.222229 629.930969,418.244598 584.142273,453.524933 
	C569.236328,465.010010 552.331421,472.307343 533.917603,475.875519 
	C529.015930,476.825348 527.517822,478.823822 527.727173,483.680237 
	C528.099976,492.328430 528.001282,501.013123 527.685364,509.667389 
	C527.546692,513.466125 528.878418,515.092834 532.364868,516.492432 
	C583.515015,537.025940 634.613586,557.688354 685.691467,578.401367 
	C738.929626,599.990356 792.130127,621.672241 845.351624,643.302368 
	C865.014526,651.293701 873.846191,668.415344 867.998047,687.278015 
	C863.660156,701.269470 849.915100,710.690186 833.732361,710.681885 
	C781.408386,710.654968 729.084473,710.575195 676.760498,710.567200 
	C535.953003,710.545837 395.145538,710.549438 254.338074,710.547546 
	C233.342224,710.547241 212.345123,710.716370 191.350876,710.539307 
	C172.691544,710.381897 159.011230,698.136963 156.569229,679.871460 
	C154.595261,665.106873 163.664032,650.382874 179.031982,644.051636 
	C205.358047,633.205688 231.760315,622.544556 258.143158,611.836792 
	C324.950500,584.722107 391.764679,557.624268 458.576599,530.520813 
	C471.383453,525.325500 484.163422,520.061768 497.022186,514.998169 
	C499.933105,513.851868 501.013092,512.287354 500.970795,509.109985 
	C500.795532,495.947937 500.874664,482.782166 500.904327,469.617889 
	C500.926666,459.697937 506.248108,453.619293 516.055786,451.554138 
	C525.486084,449.568451 535.154114,448.079590 544.162231,444.831787 
	C581.003723,431.548492 604.753357,393.504364 600.734436,355.266632 
	C596.689453,316.780304 565.878540,284.774139 527.193787,278.873230 
	C480.558685,271.759521 437.388519,300.892822 427.003510,346.815948 
	C423.387512,362.806000 425.134674,378.605164 430.630768,394.028992 
	C432.442596,399.113525 431.808807,403.983734 427.949768,407.951996 
	C424.064117,411.947601 419.218536,413.343414 413.751221,411.992676 
	C408.557007,410.709381 405.492798,407.050446 403.976807,402.195770 
	C392.423828,365.199829 396.198242,330.059906 419.364685,298.596497 
	C456.724121,247.856873 524.467590,235.951416 577.477051,270.093384 
	C593.151672,280.188965 605.369324,293.723694 614.524658,310.442444 
M837.328674,668.016785 
	C796.596619,651.493042 755.859070,634.982910 715.133850,618.442383 
	C649.571838,591.814514 584.009949,565.186096 518.482117,538.474182 
	C514.861267,536.998230 511.698364,536.807739 507.996643,538.322388 
	C451.133667,561.589661 394.241425,584.785828 337.318634,607.906494 
	C288.109467,627.894104 238.854263,647.768494 189.615692,667.683716 
	C184.221313,669.865479 181.853333,673.265747 182.704071,677.746033 
	C183.580093,682.359436 186.909500,684.739563 192.699173,684.787659 
	C197.197327,684.825012 201.696243,684.761047 206.194809,684.761414 
	C415.294861,684.777344 624.394958,684.793457 833.494995,684.825684 
	C838.337646,684.826416 842.084167,683.070129 843.464844,678.226868 
	C844.850403,673.366150 842.179810,670.330383 837.328674,668.016785 
z"/>
<path fill="#FAC65A" opacity="1.000000" stroke="none" 
	d="
M373.652954,393.769592 
	C362.914276,395.990143 352.491302,398.021027 342.053528,399.972900 
	C338.782471,400.584656 335.478729,401.037415 332.177582,401.468536 
	C326.095642,402.262878 321.707733,399.400238 320.505798,393.935425 
	C319.397766,388.897552 322.706970,383.265747 328.182922,382.223419 
	C340.768463,379.827789 353.422058,377.770569 366.083069,375.800995 
	C370.788483,375.069000 374.819031,376.807343 376.732300,381.386780 
	C378.619568,385.903961 378.057709,390.218658 373.652954,393.769592 
z"/>
<path fill="#FAC65A" opacity="1.000000" stroke="none" 
	d="
M675.707214,378.521606 
	C683.170105,379.859650 690.231995,381.004364 697.255737,382.347839 
	C703.377930,383.518890 706.747131,388.139313 705.851440,393.785736 
	C704.952759,399.451630 700.328674,402.933685 694.159180,401.944763 
	C681.514282,399.917847 668.902527,397.668945 656.312683,395.320801 
	C650.837463,394.299622 647.544250,389.625519 648.161499,384.465851 
	C648.801819,379.114014 652.831665,375.413696 658.533752,375.858795 
	C664.151306,376.297302 669.706848,377.530212 675.707214,378.521606 
z"/>
<path fill="#FAC65A" opacity="1.000000" stroke="none" 
	d="
M639.144287,313.969666 
	C632.738525,307.785828 633.072021,300.626160 640.017212,296.912659 
	C650.992859,291.044189 662.065674,285.332062 673.305969,279.992859 
	C681.171814,276.256500 689.275085,281.784241 687.815796,289.846954 
	C687.328247,292.540649 685.101135,295.812775 682.731323,297.119354 
	C671.834351,303.127350 660.725952,308.796753 649.410278,313.968018 
	C646.641357,315.233398 642.804260,314.161591 639.144287,313.969666 
z"/>
<path fill="#FAC65A" opacity="1.000000" stroke="none" 
	d="
M375.595581,313.288818 
	C365.344696,308.079681 355.423950,303.052124 345.527618,297.976868 
	C339.130463,294.696075 336.979919,289.611938 339.615356,284.204315 
	C342.260406,278.776978 347.814972,277.091919 354.079437,280.176666 
	C364.946869,285.527985 375.745514,291.021881 386.509979,296.578125 
	C391.752716,299.284302 393.586060,305.154633 391.013367,310.145966 
	C388.247803,315.511536 383.002136,316.661133 375.595581,313.288818 
z"/>
<path fill="#FAC65A" opacity="1.000000" stroke="none" 
	d="
M424.851074,246.210144 
	C418.910736,237.159119 413.172272,228.409317 407.416870,219.670670 
	C403.961334,214.423981 404.812866,208.324051 409.475037,205.128281 
	C414.356598,201.782089 420.253174,203.306931 423.965027,208.898987 
	C430.303284,218.447830 436.630768,228.003845 442.957947,237.560043 
	C447.108948,243.829483 446.578522,248.694534 441.362976,252.293701 
	C436.174194,255.874390 430.574615,254.462875 426.489166,248.548004 
	C426.017059,247.864471 425.527344,247.193069 424.851074,246.210144 
z"/>
<path fill="#FAC65A" opacity="1.000000" stroke="none" 
	d="
M591.553589,225.504837 
	C595.441284,219.655746 599.072998,214.069473 602.817078,208.559509 
	C606.289551,203.449188 611.954651,202.192413 616.683472,205.352646 
	C621.591064,208.632355 622.568359,214.478561 619.077454,219.775970 
	C612.570618,229.650024 606.066345,239.525833 599.537354,249.385254 
	C596.123901,254.539825 590.068848,255.894928 585.218262,252.641876 
	C580.363342,249.385941 579.319641,243.914810 582.705017,238.654953 
	C585.498657,234.314392 588.459778,230.081528 591.553589,225.504837 
z"/>
<path fill="#FAC65A" opacity="1.000000" stroke="none" 
	d="
M522.750732,222.538910 
	C521.585510,229.677597 517.972046,233.060822 512.406372,232.686020 
	C506.536987,232.290787 503.308990,228.256958 503.324158,221.251938 
	C503.348999,209.794220 503.376984,198.336380 503.461029,186.879013 
	C503.506287,180.709946 507.123749,176.470093 512.359924,176.276611 
	C518.190857,176.061142 522.456970,180.252686 522.552002,186.728577 
	C522.725037,198.515228 522.684570,210.305008 522.750732,222.538910 
z"/>
</g>
</svg>
